<svg id="BCID" xmlns="http://www.w3.org/2000/svg" viewBox="0 0 354.164 322.903">
  <defs>
    <style>
      .cls-1 {
        fill: #fff;
      }

      .cls-2 {
        fill: #e3a82b;
      }

      .cls-3 {
        fill: #65799e;
      }
    </style>
  </defs>
  <g>
    <g>
      <path class="cls-1" d="M148.943,303.257c0-5.509-.388-6.971-4.107-7.267l-2.587-.18c-.421-.334-.3-1.826.084-1.86,4.46-.4,10.081-.6,17.766-.6,5.206,0,10.164.372,13.883,2.085a9.741,9.741,0,0,1,6.28,9.306c0,5.36-3.47,8.115-8.429,10.2,0,.745.662.97,1.57,1.116,4.462.748,11.074,4.467,11.074,12.434,0,8.638-7.106,14.445-21.982,14.445-2.4,0-6.445-.225-9.916-.225-3.636,0-6.446.151-9.5.225a1.345,1.345,0,0,1-.165-1.863l1.489-.224c4.378-.67,4.544-1.489,4.544-9.305Zm6.776,9.9c0,2.085.083,2.236,4.3,2.085,8.428-.3,12.974-2.53,12.974-9.528,0-7.3-6.032-10.05-12.312-10.05a11.214,11.214,0,0,0-3.8.445c-.826.224-1.157.6-1.157,1.936Zm0,17.274c0,2.679.165,6.476,1.735,8.114,1.571,1.712,4.05,2.086,6.529,2.086,7.354,0,12.973-2.978,12.973-10.424,0-5.882-3.3-12.73-16.444-12.73-4.462,0-4.793.448-4.793,1.935Z" transform="translate(-100.071 -100.073)"/>
      <path class="cls-1" d="M241.913,310.585c0-6.741-.142-7.822-4.306-8.14l-1.765-.128c-.423-.254-.282-1.4.141-1.591,3.53.128,5.93.193,8.895.193,2.823,0,5.222-.065,8.751-.193.424.193.565,1.337.142,1.591l-1.765.128c-4.164.318-4.305,1.4-4.305,8.14v22.64c0,6.739.141,7.629,4.305,8.075l1.765.189c.423.255.282,1.4-.142,1.591-3.529-.128-5.928-.192-8.751-.192-2.965,0-5.365.064-8.895.192a1.148,1.148,0,0,1-.141-1.591l1.765-.189c4.164-.446,4.306-1.336,4.306-8.075Z" transform="translate(-100.071 -100.073)"/>
      <path class="cls-1" d="M281.073,333.351c0,6.677.132,7.629,3.968,7.949l2.116.189c.4.255.265,1.4-.132,1.591-3.77-.128-6.017-.192-8.664-.192s-4.96.064-9.192.192a1.083,1.083,0,0,1,0-1.591l2.381-.189c3.769-.32,4.1-1.272,4.1-7.949V304.924c0-1.971,0-2.032-1.983-2.032h-3.638c-2.843,0-6.481.125-8.134,1.587a11.584,11.584,0,0,0-2.975,4.388,1.308,1.308,0,0,1-1.721-.444,64.723,64.723,0,0,0,2.513-9.476,1.726,1.726,0,0,1,1.257,0c.4,2.034,2.579,1.972,5.622,1.972h26.784c3.57,0,4.166-.128,5.158-1.78.33-.128,1.059-.063,1.19.188a37.122,37.122,0,0,0-.991,9.669c-.264.509-1.39.509-1.719.126-.2-1.592-.661-3.943-1.654-4.643-1.522-1.082-4.033-1.587-7.671-1.587h-4.7c-1.983,0-1.918.061-1.918,2.161Z" transform="translate(-100.071 -100.073)"/>
      <path class="cls-1" d="M309.418,310.585c0-6.741-.142-7.822-4.305-8.14l-1.764-.128c-.424-.254-.283-1.4.14-1.591,3.53.128,5.929.193,8.9.193,2.822,0,5.223-.065,8.753-.193.424.193.564,1.337.141,1.591l-1.766.128c-4.164.318-4.306,1.4-4.306,8.14v22.64c0,6.739.142,7.629,4.306,8.075l1.766.189c.423.255.283,1.4-.141,1.591-3.53-.128-5.931-.192-8.753-.192-2.966,0-5.365.064-8.9.192a1.147,1.147,0,0,1-.14-1.591l1.764-.189c4.163-.446,4.305-1.336,4.305-8.075Z" transform="translate(-100.071 -100.073)"/>
      <path class="cls-1" d="M341.05,343.731a26.8,26.8,0,0,1-11.7-2.351c-.9-1.4-1.876-5.915-2.027-8.9.374-.446,1.5-.571,1.8-.191,1.124,3.244,4.2,9.474,12.9,9.474,6.3,0,9.38-3.5,9.38-7.312,0-2.8-.674-5.913-6.154-8.9l-7.126-3.943c-3.754-2.1-8.106-5.723-8.106-10.939,0-6.04,5.554-10.938,15.308-10.938a33.834,33.834,0,0,1,6.978.829,11.7,11.7,0,0,0,2.627.38,23.947,23.947,0,0,1,1.351,7.758,1.692,1.692,0,0,1-1.877.193c-.974-3.054-3-7.187-10.2-7.187-7.352,0-8.928,4.133-8.928,7.058,0,3.689,3.6,6.36,6.377,7.822l6,3.18c4.727,2.479,9.379,6.167,9.379,12.209C357.032,338.961,350.806,343.731,341.05,343.731Z" transform="translate(-100.071 -100.073)"/>
      <path class="cls-1" d="M378.818,322.349c-3.283,0-3.42.127-3.42,2.035v8.967c0,6.677.342,7.568,4.174,7.949l1.985.189c.41.255.273,1.4-.137,1.591-3.695-.128-6.022-.192-8.69-.192-2.944,0-5.27.128-7.938.192a1.172,1.172,0,0,1-.137-1.591l1.162-.189c3.834-.636,3.969-1.272,3.969-7.949V310.458c0-6.678-.477-7.758-4.037-8.013l-1.779-.128c-.41-.254-.274-1.4.137-1.591,3.353.065,5.679.193,8.623.193,2.668,0,5-.065,7.936-.193.412.193.549,1.337.138,1.591l-1.3.128c-3.969.382-4.106,1.335-4.106,8.013v7.311c0,1.972.137,2.036,3.42,2.036H398.39c3.285,0,3.422-.064,3.422-2.036v-7.311c0-6.678-.137-7.631-4.174-8.013l-1.3-.128c-.413-.254-.276-1.4.136-1.591,3.148.128,5.474.193,8.279.193,2.669,0,5-.065,8.074-.193.411.193.547,1.337.137,1.591l-1.438.128c-3.966.382-4.1,1.335-4.1,8.013v22.893c0,6.677.138,7.5,4.1,7.949l1.643.189c.411.255.275,1.4-.136,1.591-3.285-.128-5.611-.192-8.28-.192-2.805,0-5.268.064-8.279.192a1.169,1.169,0,0,1-.136-1.591l1.3-.189c4.174-.636,4.174-1.272,4.174-7.949v-8.967c0-1.908-.137-2.035-3.422-2.035Z" transform="translate(-100.071 -100.073)"/>
      <path class="cls-1" d="M109.779,357.053c5.625-4.376,12.79-6.525,20.8-6.525a59.606,59.606,0,0,1,13.638,1.842,5.81,5.81,0,0,0,2.156.307c.078,1.765.463,6.6,1.079,11.287a1.629,1.629,0,0,1-2.08.153c-1.155-5.221-4.623-11.211-15.794-11.211-11.789,0-21.806,7.447-21.806,23.34,0,16.124,10.249,25.03,22.883,25.03,9.94,0,14.332-6.45,16.1-10.98a1.626,1.626,0,0,1,2,.308c-.538,3.993-2.542,9.059-3.7,10.521a15.5,15.5,0,0,0-2.7.764,45.42,45.42,0,0,1-12.174,1.769c-6.934,0-13.561-1.384-19.186-5.146a24.724,24.724,0,0,1-10.94-21.112A25.47,25.47,0,0,1,109.779,357.053Z" transform="translate(-100.071 -100.073)"/>
      <path class="cls-1" d="M151.918,381.887c0-12.718,10.015-22.448,23.77-22.448,15.425,0,23.169,10.619,23.169,21.811,0,12.846-10.281,22.2-23.169,22.2C160.866,403.446,151.918,393.333,151.918,381.887Zm40.263,1.336c0-10.494-4.874-21.813-17.628-21.813-6.944,0-15.958,4.515-15.958,18.442,0,9.411,4.807,21.623,17.961,21.623C184.569,401.475,192.181,395.751,192.181,383.223Z" transform="translate(-100.071 -100.073)"/>
      <path class="cls-1" d="M274.187,376.419c0-3.942-.134-11.256-1.281-13.163-.47-.764-1.684-1.21-3.37-1.337l-1.684-.127a1.1,1.1,0,0,1,.134-1.526c2.561.126,5.056.191,7.685.191,2.831,0,4.651-.065,7.079-.19a1.057,1.057,0,0,1,.134,1.525l-1.618.127c-1.686.127-2.967.7-3.37,1.528-.944,2.1-.944,9.411-.944,12.972v7.186c0,5.534-.945,11.382-4.718,15.2-2.9,2.987-7.888,4.642-12.876,4.642-4.651,0-9.3-.828-12.6-3.5-3.573-2.8-5.258-7.439-5.258-15.007V369.932c0-6.614-.136-7.694-4.044-8.013l-1.686-.127c-.4-.253-.27-1.333.134-1.526,3.371.126,5.663.191,8.359.191,2.764,0,4.989-.065,8.291-.19.405.192.539,1.272.135,1.525l-1.619.127c-3.908.319-4.043,1.4-4.043,8.013v13.736c0,10.238,3.37,16.98,13.684,16.98,9.774,0,13.48-7.251,13.48-16.916Z" transform="translate(-100.071 -100.073)"/>
      <path class="cls-1" d="M352.535,368.476c0-4.754-.3-5.975-3.65-6.232l-2.385-.23c-.271-.246-.416-1.534.074-1.57,4.025-.3,9.091-.51,16.021-.51,4.693,0,9.162.32,12.516,1.795,3.2,1.351,5.659,3.918,5.659,8.031,0,4.625-3.126,7-7.6,8.8,0,.642.594.835,1.415.964,4.023.641,9.984,3.854,9.984,10.725,0,7.451-6.408,12.461-19.821,12.461-2.157,0-5.81-.195-8.938-.195-3.279,0-5.81.129-8.57.195a1.125,1.125,0,0,1-.149-1.605l1.343-.192c3.948-.58,4.1-1.285,4.1-8.028Zm6.11,8.541c0,1.8.075,1.926,3.874,1.8,7.6-.257,11.7-2.182,11.7-8.223,0-6.294-5.44-8.67-11.1-8.67a10.564,10.564,0,0,0-3.428.386c-.745.192-1.042.513-1.042,1.669Zm0,14.9c0,2.31.149,5.587,1.565,7,1.415,1.476,3.65,1.8,5.886,1.8,6.63,0,11.7-2.571,11.7-8.993,0-5.075-2.98-10.982-14.826-10.982-4.024,0-4.321.385-4.321,1.668Z" transform="translate(-100.071 -100.073)"/>
      <rect class="cls-2" x="42.515" y="319.703" width="270.651" height="3.2"/>
      <path class="cls-1" d="M231.123,341.49l-1.765-.152c-.357-.038-.674-.083-.975-.131-2.583-.459-3.617-2.759-4.833-4.892l-6.1-10.63c-1.054-1.771-2.186-4.157-4.6-4.5,6.256-.75,11.909-4.361,11.909-10.561,0-7.157-7.086-10.359-14.245-10.359-4.3,0-8.211.117-12.582.117-2.411,0-5.279-.117-7.69-.117-1.34,0-1.356.274-1.356,1.022,0,1.107.467.8,1.885.876,5.092.288,4.9,1.237,4.9,5.6v27.87c0,3.989.345,5.18-3.843,5.556,0,0-.641.065-1.006.1l-1.773.182a1.146,1.146,0,0,0,.142,1.59c.941-.035,2.615-.1,2.615-.1,2.318-.069,4.637-.246,6.955-.246s4.562.179,6.853.246v0c.815.025,1.673.053,2.616.088a1.145,1.145,0,0,0,.141-1.589l-1.785-.169c-.364-.038-.991-.1-.991-.1-4.23-.287-3.97-1.479-3.97-5.569V325.142c0-.616-.076-2.25.376-2.726.377-.411,1.055-.342,1.658-.342,5.729,0,5.652.545,8.366,5.315l7.385,13.289c.6,1.022,1.055,2.315,2.563,2.315h6.415c.808.026,1.66.053,2.6.087A1.145,1.145,0,0,0,231.123,341.49ZM205.4,320.6c-1.281,0-3.845.478-3.845-1.225v-12.2c0-4.768.153-5.45,5.88-5.45,6.706,0,10.852,3.406,10.852,9.674a8,8,0,0,1-3.467,6.952C211.954,320.322,208.862,320.6,205.4,320.6Z" transform="translate(-100.071 -100.073)"/>
      <g>
        <path class="cls-1" d="M206.78,370.148c0-6.675-.139-7.694-4.546-8.012l-1.75-.128c-.419-.255-.279-1.4.141-1.591,3.918.128,6.295.191,9.093.191,2.728,0,5.106-.063,8.6-.189.42.192.56,1.334.14,1.589l-1.679.128c-4.126.318-4.267,1.337-4.267,8.012v22.131c0,4,.21,5.658,1.469,6.866.769.7,2.1,1.464,7.624,1.464,5.947,0,7.415-.253,8.536-.826,1.4-.765,3.217-3.054,4.616-6.3.42-.316,1.749-.062,1.749.381a47.389,47.389,0,0,1-2.939,8.9c-3.567-.126-10.213-.189-17.418-.189h-6.435c-2.938,0-5.175.063-9.093.189a1.15,1.15,0,0,1-.141-1.587l2.1-.191c4.057-.382,4.2-1.272,4.2-7.948Z" transform="translate(-100.071 -100.073)"/>
        <path class="cls-1" d="M394.171,370.273c0-6.739-.137-7.819-4.191-8.137l-1.715-.128c-.412-.255-.276-1.4.138-1.591,3.434.128,5.768.191,8.653.191,2.747,0,5.082-.063,8.516-.189.411.192.549,1.334.136,1.589l-1.717.128c-4.051.318-4.188,1.4-4.188,8.137v22.643c0,6.738.137,7.63,4.188,8.075l1.717.191c.413.254.275,1.4-.136,1.587-3.434-.126-5.769-.189-8.516-.189-2.885,0-5.219.063-8.653.189a1.163,1.163,0,0,1-.138-1.587l1.715-.191c4.054-.445,4.191-1.337,4.191-8.075Z" transform="translate(-100.071 -100.073)"/>
        <path class="cls-1" d="M339.292,400.976c-.354-.037-1.012-.091-1.012-.091a2.67,2.67,0,0,1-1.887-.737c-.892-.946-.817-3.644-.817-4.723V367.559c0-1.216-.3-3.845.594-4.791a3.316,3.316,0,0,1,2.2-.63v0c.5-.039.514-.039.954-.062l1.765-.125c.425-.255.282-1.4-.143-1.592-.941.035-1.8.022-2.614.048v0h-7.5c-.816,0-1.558,0-2,.877L313.533,393.13l-13.506-30.765c-.446-1.08-.519-1.957-1.93-1.957h-7.811c-.812-.025-1.711-.016-2.653-.051-.424.192-.566,1.337-.142,1.592l1.765.125c.364.031,1.023.074,1.023.074,2.929.19,3.111.842,2.845,3.926l-2.3,29.89c-.2,3-.367,4.586-3.509,4.878,0,0-.666.085-1.03.123l-1.764.19a1.144,1.144,0,0,0,.141,1.589c.932-.033,2.584-.083,2.584-.083,1.593-.077,3.217-.22,4.84-.22,1.751,0,3.5.164,5.257.236v0c.813.025,1.673.052,2.615.088a1.146,1.146,0,0,0,.144-1.589l-1.767-.191c-.464-.038-.984-.088-.984-.088-4.537-.309-4.436-3.514-4.153-7.429l2.154-27.8h.519l14.62,34.207c.148.471.369,1.282,1.114,1.282.669,0,.89-.742,1.112-1.217l16.475-35.085h.522v30.567c0,1.213.147,3.711-1.114,4.656a9.354,9.354,0,0,1-2.8.784c-.3.047-.607.088-.956.126l-1.766.191a1.142,1.142,0,0,0,.142,1.587c.929-.032,2.58-.085,2.58-.085,2.392-.065,4.822-.243,7.255-.243,1.747,0,5.174.167,5.174.167.814.025,1.744.114,2.688.148a1.145,1.145,0,0,0,.142-1.59Z" transform="translate(-100.071 -100.073)"/>
        <path class="cls-1" d="M453.979,401.149l-.236-.191c-.352-.039-.665-.081-.961-.128-2.751-.614-3.823-3.928-4.838-6.286l-14.151-33.5c-.141-.4-.422-1.269-.983-1.269-.771,0-.98.936-1.191,1.467L418.1,394.679c-.492,1.264-1.751,4.336-2.663,5.268a3.865,3.865,0,0,1-2.576.952s-.763.075-1.127.115l-1.663.168a1.142,1.142,0,0,0,.142,1.587c.943-.032,2.616-.092,2.616-.092,1.85-.026,3.7-.259,5.551-.259,1.557,0,3.113.166,4.671.234l2.614.1a1.145,1.145,0,0,0,.142-1.589l-1.765-.192-.959-.1c-1.625-.179-3.651-.471-3.651-2.258a11.028,11.028,0,0,1,.979-3.671l2.1-5c1.051-2.4.631-2.671,3.432-2.671h9.529c3.362,0,2.872,0,4.344,3.406l2.242,5.069a11.036,11.036,0,0,1,.979,3.271c0,1.675-1.83,1.787-3.54,1.932,0,0-.567.049-1.06.084l-1.7.125a1.144,1.144,0,0,0,.142,1.589c.942-.034,2.615-.1,2.615-.1,1.993-.073,4-.225,5.923-.225,2.454,0,4.908.166,7.362.234h0c.805.024.124.053,1.055.086A1.144,1.144,0,0,0,453.979,401.149ZM435.442,385.41h-8.258c-.289,0-2.585.269-2.585-.406a3.327,3.327,0,0,1,.214-.807l4.957-12.274c.143-.337.646-2.021,1.22-2.021.431,0,1.006,1.752,1.15,2.021l4.881,11.463c0,.134.5,1.213.5,1.484C437.523,385.612,435.873,385.41,435.442,385.41Z" transform="translate(-100.071 -100.073)"/>
      </g>
    </g>
    <path class="cls-1" d="M178.173,256.189c44.7,0,106.539,25.171,151.407,25.171,32.018,0,63.261-8.545,81.044-21.127a136.037,136.037,0,1,0-268.316-.256C147.211,259.069,163.882,256.189,178.173,256.189Z" transform="translate(-100.071 -100.073)"/>
    <g>
      <polygon class="cls-2" points="264.299 105.992 269.679 108.223 281.607 99.902 264.299 105.992"/>
      <path class="cls-2" d="M163.939,196.774,149.8,191.8l.709-1.732,15.923,5.308.069-.038,2.1-1.191.839-.525-17.364-7.386.734-1.816,38.754,15.674,1.278-.53-38.435-18.73.857-1.76L196,198.029l.563-.286-39.492-22.4.811-1.682,57.029,31.031c.467-.863,1.445-2.436,1.947-3.282a507.782,507.782,0,0,0-42.605-35.692,507.949,507.949,0,0,0,48.073,27.807c.877-1.095,1.6-1.974,2.534-3.013L176.2,147.68l1.306-1.341,39.267,33.467L180.4,143.374l1.361-1.409L222.6,181.437l-38.02-42.2,1.454-1.311,35.14,37.628L189.1,135.144l1.381-1.256L231.6,183.92c1.063-.918,1.946-1.607,3.058-2.46a507.8,507.8,0,0,0-26.017-48.8A507.777,507.777,0,0,0,242.6,176.219c1.191-.671,2.4-1.314,3.633-1.919l-.206-.135-28.813-57.5,1.713-.753,23.871,45.738-20.082-47.407,1.791-.8,23.083,51.9L228.14,111.977l1.84-.671,18.486,48.053-14.6-49.486,1.753-.646,19.22,61.377-.037.162.048-.02c1.278-.428,2.578-.806,3.885-1.162a508.212,508.212,0,0,0-5.824-54.7,508.025,508.025,0,0,0,15.081,52.866c1.35-.165,2.7-.306,4.074-.4l-.042-.064h.167l-.1-.14-5.174-64.107,1.87-.058,5,51.352-.859-51.478,1.957-.067,1.961,56.767,1.961-56.768,1.959.068-.861,51.478,5-51.351,1.869.057L281.6,167.149l-.1.14h.028l-.014.021h.085c1.338.084,2.665.218,3.983.376a507.823,507.823,0,0,0,15.059-52.8,508.033,508.033,0,0,0-5.818,54.568q1.982.523,3.913,1.154l19.153-61.163,1.755.647-14.6,49.485,18.488-48.053,1.838.672-19.445,53.368,23.082-51.9,1.793.8-20.084,47.408,23.872-45.739,1.712.753-28.709,57.3.049.02c1.181.575,2.341,1.191,3.486,1.827a507.886,507.886,0,0,0,33.791-43.368A507.917,507.917,0,0,0,319.03,181.18q1.664,1.254,3.244,2.6L362.9,134.291l1.386,1.257L332.212,175.96l35.143-37.628,1.452,1.311-38.022,42.2,40.844-39.473,1.363,1.41L336.613,180.21l39.268-33.465,1.305,1.338-48.057,42.349.027.028c.839.936,1.647,1.9,2.44,2.881a508.118,508.118,0,0,0,47.713-27.623,507.533,507.533,0,0,0-42.29,35.4c.59.986,1.545,2.67,2.09,3.686l56.221-30.612.813,1.685-44.879,25.454L397.942,179.6l.856,1.761L355.32,202.551l.834.291L400.4,184.948l.736,1.817-41.123,17.491.769.319,27.4-9.135,4.13-2.883,1.371,1.047L402.7,190.6l.709,1.73-7.8,2.745,11.273,8.6,3.611,2.014a137.813,137.813,0,0,0-268.728,3.206c.171-.083.336-.16.507-.244l1.651-.748,1.013-.473Z" transform="translate(-100.071 -100.073)"/>
    </g>
    <path class="cls-3" d="M140.981,262.917s20.325-4.059,37.29-4.059c44.7,0,106.54,25.17,151.408,25.17,32.915,0,65.016-9.029,82.511-22.193a138.789,138.789,0,0,0-1.7-56.147l-18.7-10.432-21.947,15.392L355.072,204.9c-5,2.525-35.834,23.146-35.834,23.146L307.4,219.478l-12.7-2.515-16.932-12.327L258.351,217.97s-21.669,12.582-22.413,12.582-26.144-20.133-26.144-20.133l-11.7-12.327c-1.993,1.258-9.952,4.91-9.952,4.91l-.409.109-7.7-2.383-9.353-4.961-28.41,12.883c-.171.084-.336.161-.507.244a138.743,138.743,0,0,0-.779,54.023Z" transform="translate(-100.071 -100.073)"/>
  </g>
</svg>
